# xmcd
#
# Track frame offsets:
#	150
#	17355
#	32842
#	52822
#	62347
#	82847
#	98257
#	117672
#	137445
#	152355
#	166560
#	179132
#
# Disc length: 2588 seconds
#
# Revision: 0
# Processed by: cddbd v1.5.1PL2 Copyright (c) Steve Scherf et al.
# Submitted via: dBpowerAMP V4.0
#
DISCID=7b0a1a0c
DTITLE=Howie and The Hillcats - Howie and The Hillcats
DYEAR=1900
DGENRE=
TTITLE0=Fishin' For Words
TTITLE1=Blue Highways
TTITLE2=Don't Try to Score on I-44
TTITLE3=Country Dreams
TTITLE4=Laura Maria
TTITLE5=Yuppie Blues
TTITLE6=Hawaiian Love Song
TTITLE7=My Shit's in Shambles
TTITLE8=Shipwrecked Heart
TTITLE9=Talk Show Survivors
TTITLE10=Dial 1-800
TTITLE11=The Note
EXTD=A great band from Springfield, Missouri
EXTT0=
EXTT1=
EXTT2=
EXTT3=
EXTT4=
EXTT5=
EXTT6=
EXTT7=
EXTT8=
EXTT9=
EXTT10=
EXTT11=
PLAYORDER=
